<svg height="511pt" viewBox="-1 1 511 511.999" width="511pt" xmlns="http://www.w3.org/2000/svg">
    <path d="m379.949219 61.480469c-.652344 0-1.300781-.058594-1.953125-.191407-.640625-.128906-1.269532-.320312-1.867188-.570312-.601562-.25-1.191406-.558594-1.730468-.917969-.539063-.371093-1.0625-.789062-1.519532-1.25-.460937-.460937-.882812-.972656-1.242187-1.519531-.359375-.542969-.667969-1.121094-.917969-1.722656-.25-.609375-.441406-1.238282-.570312-1.867188-.132813-.652344-.199219-1.3125-.199219-1.960937 0-.652344.066406-1.308594.199219-1.949219.128906-.640625.320312-1.269531.570312-1.871094.25-.609375.558594-1.191406.917969-1.730468.359375-.550782.78125-1.058594 1.242187-1.519532.457032-.460937.976563-.878906 1.519532-1.238281.539062-.363281 1.128906-.671875 1.730468-.921875.597656-.25 1.226563-.441406 1.867188-.570312 1.292968-.257813 2.621094-.257813 3.910156 0 .640625.128906 1.269531.320312 1.871094.570312.601562.25 1.179687.558594 1.71875.921875.550781.359375 1.0625.777344 1.519531 1.238281.460937.460938.882813.96875 1.25 1.519532.363281.539062.671875 1.121093.921875 1.730468.25.601563.441406 1.230469.570312 1.871094.128907.640625.191407 1.296875.191407 1.949219 0 .648437-.0625 1.308593-.191407 1.960937-.128906.628906-.320312 1.257813-.570312 1.867188-.25.601562-.558594 1.179687-.921875 1.722656-.367187.546875-.777344 1.058594-1.25 1.519531-.457031.460938-.96875.878907-1.519531 1.25-.539063.359375-1.117188.667969-1.71875.917969-.601563.25-1.230469.441406-1.871094.570312-.648438.132813-1.300781.191407-1.957031.191407zm0 0"/><path d="m509.558594 10c0-5.523438-4.476563-10-10-10h-339.261719c-5.519531 0-10 4.476562-10 10s4.480469 10 10 10h80.320313v200.589844c-2.675782-5.355469-6.253907-10.285156-10.652344-14.589844-10.238282-10.027344-23.773438-15.550781-38.113282-15.550781-14.402343 0-28.03125 5.722656-38.078124 15.523437-11.324219-13.300781-28.175782-21.367187-46.035157-21.367187-33.257812 0-60.316406 27.046875-60.316406 60.289062 0 1.109375.03125 2.210938.089844 3.316407-.121094-.003907-.242188-.003907-.363281-.003907-25.722657 0-46.648438 20.933594-46.648438 46.664063 0 .523437.773438 8.542968.917969 9.285156v56.609375c0 41.082031 22.714843 76.960937 56.242187 95.722656-5.992187 5.882813-9.714844 14.070313-9.714844 23.109375 0 17.867188 14.539063 32.402344 32.414063 32.402344 17.871094 0 32.414063-14.535156 32.414063-32.402344 0-3.207031-.46875-6.304687-1.339844-9.230468h277.308594c-.875 2.925781-1.339844 6.023437-1.339844 9.230468 0 17.867188 14.539062 32.402344 32.414062 32.402344 17.871094 0 32.410156-14.535156 32.410156-32.402344 0-8.847656-3.5625-16.875-9.335937-22.730468 33.902344-18.65625 56.925781-54.738282 56.925781-96.101563v-340.769531c5.402344-.132813 9.742188-4.558594 9.742188-9.996094zm-211.097656 10v196.367188c0 5.523437 4.476562 10 10 10 5.519531 0 10-4.476563 10-10v-196.367188h113.765624v196.367188c0 5.523437 4.476563 10 10 10 5.523438 0 10-4.476563 10-10v-196.367188h27.589844v306.234375h-219.199218v-306.234375zm-216.660157 306.234375c4.570313-5.054687 8.046875-11.148437 10.054688-17.929687h148.761719v17.929687zm-34.652343-58.027344c3.191406 0 6.304687.554688 9.261718 1.652344 3.59375 1.332031 7.640625.492187 10.40625-2.164063 2.765625-2.660156 3.765625-6.664062 2.578125-10.3125-1.308593-4.015624-1.972656-8.21875-1.972656-12.488281 0-22.214843 18.085937-40.289062 40.316406-40.289062 15.390625 0 29.660157 8.960937 36.347657 22.828125 1.617187 3.355468 4.960937 5.535156 8.683593 5.652344 3.746094.121093 7.203125-1.835938 9.03125-5.078126 6.113281-10.832031 17.625-17.558593 30.050781-17.558593 18.597657 0 34.054688 15.109375 34.457032 33.679687.121094 5.421875 4.539062 9.761719 9.96875 9.78125 1.472656.003906 2.921875.0625 4.339844.175782v34.21875h-156.976563c-5.164063 0-9.480469 3.929687-9.957031 9.074218-1.277344 13.773438-12.6875 24.15625-26.535156 24.15625-12.542969 0-23.085938-8.519531-25.910157-20.359375-.042969-.21875-.089843-.433593-.144531-.648437-.21875-1.027344-.378906-2.078125-.480469-3.148438-.007812-.089844-.019531-.175781-.027343-.261718-.003907-.09375-.007813-.183594-.015626-.277344-.046874-.664063-.074218-1.324219-.074218-1.96875.003906-14.703125 11.957031-26.664063 26.652344-26.664063zm33.207031 223.792969c-6.84375 0-12.414063-5.5625-12.414063-12.402344 0-6.835937 5.570313-12.398437 12.414063-12.398437 6.847656 0 12.414062 5.5625 12.414062 12.398437 0 6.839844-5.566406 12.402344-12.414062 12.402344zm339.457031 0c-6.84375 0-12.414062-5.5625-12.414062-12.402344 0-6.835937 5.570312-12.398437 12.414062-12.398437s12.414062 5.5625 12.414062 12.398437c0 6.839844-5.570312 12.402344-12.414062 12.402344zm60.003906-131.234375c0 49.40625-40.179687 89.601563-89.5625 89.601563h-279.273437c-49.386719 0-89.5625-40.195313-89.5625-89.601563v-14.53125h458.398437zm0 0"/><path d="m379.953125 262.023438c5.519531 0 10-4.476563 10-10v-163.039063c0-5.523437-4.480469-10-10-10-5.523437 0-10 4.476563-10 10v163.039063c0 5.523437 4.476563 10 10 10zm0 0"/>
</svg>
