<svg xmlns="http://www.w3.org/2000/svg" width="26.683" height="26.683">
    <path fill="#00D081" fill-rule="evenodd" d="M18.242 20H1.757A1.76 1.76 0 0 1 0 18.242V4.102c0-.97.788-1.759 1.757-1.759h.587v-.585C2.344.788 3.132 0 4.101 0c.97 0 1.758.788 1.758 1.758v.585h2.422v-.585C8.281.788 9.069 0 10.039 0c.969 0 1.757.788 1.757 1.758v.585h2.344v-.585c0-.97.789-1.758 1.758-1.758a1.76 1.76 0 0 1 1.758 1.758v.585h.586A1.76 1.76 0 0 1 20 4.102v14.14A1.76 1.76 0 0 1 18.242 20zM4.687 1.758a.587.587 0 0 0-1.172 0v2.344a.587.587 0 0 0 1.172 0V1.758zm5.938 0a.587.587 0 0 0-1.172 0v2.344a.587.587 0 0 0 1.172 0V1.758zm5.859 0a.587.587 0 0 0-1.172 0v2.344a.587.587 0 0 0 1.172 0V1.758zm2.344 2.344a.587.587 0 0 0-.586-.587h-.586v.587a1.76 1.76 0 0 1-1.758 1.757 1.76 1.76 0 0 1-1.758-1.757v-.587h-2.344v.587a1.759 1.759 0 0 1-3.515 0v-.587H5.859v.587a1.759 1.759 0 0 1-3.515 0v-.587h-.587a.586.586 0 0 0-.585.587v3.007h17.656V4.102zm0 4.179H1.172v9.961c0 .323.262.586.585.586h16.485a.587.587 0 0 0 .586-.586V8.281zm-1.758 9.375H2.929a.585.585 0 0 1-.585-.586v-7.031c0-.324.262-.586.585-.586H17.07c.323 0 .586.262.586.586v7.031a.586.586 0 0 1-.586.586zM5.859 10.625H3.515v2.344h2.344v-2.344zm0 3.515H3.515v2.344h2.344V14.14zm3.594-3.515H7.031v2.344h2.422v-2.344zm0 3.515H7.031v2.344h2.422V14.14zm3.515-3.515h-2.343v2.344h2.343v-2.344zm0 3.515h-2.343v2.344h2.343V14.14zm3.516-3.515H14.14v2.344h2.344v-2.344zm0 3.515H14.14v2.344h2.344V14.14z"/>
</svg>
