<svg xmlns="http://www.w3.org/2000/svg" width="32.013" height="32.013">
    <path fill="#BBC0BE" fill-rule="evenodd" d="M23.927 16.947c-.058 1.278-.261 2.15-.558 2.913a6.135 6.135 0 0 1-3.51 3.51c-.763.296-1.635.499-2.912.558-1.28.058-1.689.072-4.948.072-3.258 0-3.667-.014-4.947-.072-1.277-.059-2.149-.262-2.913-.558a5.89 5.89 0 0 1-2.125-1.384A5.89 5.89 0 0 1 .629 19.86c-.296-.763-.499-1.635-.557-2.913C.013 15.668 0 15.259 0 12c0-3.259.013-3.668.072-4.948.058-1.277.26-2.149.557-2.913.301-.8.774-1.526 1.385-2.125A5.876 5.876 0 0 1 4.139.63C4.902.333 5.774.13 7.052.072 8.331.014 8.74 0 11.999 0c3.259 0 3.668.014 4.948.072 1.277.058 2.149.261 2.912.558a5.88 5.88 0 0 1 2.126 1.384 5.872 5.872 0 0 1 1.384 2.125c.297.764.5 1.636.558 2.913.058 1.28.072 1.689.072 4.948 0 3.259-.014 3.667-.072 4.947zm-2.16-9.796c-.053-1.17-.248-1.806-.413-2.228a3.703 3.703 0 0 0-.898-1.38 3.727 3.727 0 0 0-1.379-.898c-.423-.164-1.059-.36-2.229-.413-1.265-.058-1.645-.07-4.849-.07s-3.583.012-4.849.07c-1.17.053-1.805.249-2.228.413a3.731 3.731 0 0 0-1.38.898 3.727 3.727 0 0 0-.898 1.38c-.164.422-.359 1.058-.412 2.228-.059 1.265-.071 1.645-.071 4.849s.012 3.584.071 4.849c.053 1.17.248 1.806.412 2.228.193.522.5.993.898 1.38.388.399.859.705 1.38.898.423.164 1.058.36 2.228.413 1.266.058 1.645.07 4.849.07s3.584-.012 4.849-.07c1.17-.053 1.806-.249 2.229-.413a3.976 3.976 0 0 0 2.277-2.278c.165-.422.36-1.058.413-2.228.058-1.265.07-1.645.07-4.849s-.012-3.584-.07-4.849zm-3.362-.117a1.44 1.44 0 1 1 0-2.88 1.44 1.44 0 0 1 0 2.88zm-6.406 11.128a6.162 6.162 0 1 1 0-12.324 6.162 6.162 0 0 1 0 12.324zm0-10.162a4 4 0 1 0 0 8 4 4 0 0 0 0-8z"/>
</svg>
