<svg xmlns="http://www.w3.org/2000/svg" width="29.329" height="33.335">
    <path fill="#BBC0BE" fill-rule="evenodd" d="M21.776 13.892c-.691 5.843-4.942 6.406-5.694 6.659-.324.109-3.186.849-6.907.526a61.165 61.165 0 0 1-1.35 1.581c-.719.802-1.161 1.546-1.914 1.304-.621-.199-.587-1.178-.587-1.178l.003-2.418-.006-.001C-.119 18.78-.039 12.937.022 9.818c.062-3.119.646-5.633 2.306-7.352C5.309-.366 11.426.016 11.426.016c5.186.024 7.515 1.774 8.091 2.323 1.913 1.719 2.972 5.528 2.259 11.553zM18.32 3.557c-.488-.458-2.59-1.826-6.978-1.846 0 0-5.196-.353-7.716 2.012-1.405 1.435-1.877 3.569-1.928 6.173-.053 2.605-.208 7.567 4.394 8.89l.028.007.003 4.425 3.426-3.84c3.159.214 5.673-.433 5.944-.523.635-.211 4.082-.519 4.667-5.399.603-5.03-.222-8.464-1.84-9.899zm-1.941 11.8a4.845 4.845 0 0 1-.934 1.192l-.009.006c-.511.442-1.01.581-1.49.42-1.852-.756-3.73-1.847-5.467-3.669-1.755-1.845-2.932-3.918-3.542-5.861l-.062-.284c-.118-.706.317-1.179 1.519-2.001l.022-.016c.418-.26.833-.131 1.101.094.248.179.945 1.112.945 1.112.137.212 1.096 1.409.875 1.983-.075.33-.637.677-.94.963l-.024.02c-.129.217-.181.364-.139.682l.011.051c.159.775.6 1.52 1.331 2.233.721.707 1.427 1.127 2.09 1.295.093.02.448.069.678-.227l.449-.584c.216-.29.74-.476 1.252-.18.285.166.796.494 1.116.737.34.259 1.035.859 1.038.861.331.29.407.715.182 1.164l-.002.009zm-3.401-6.911c.289.309.449.757.477 1.332a.143.143 0 0 1-.131.15h-.007a.14.14 0 0 1-.138-.136c-.024-.503-.159-.889-.399-1.147-.24-.256-.599-.399-1.066-.424a.143.143 0 0 1-.131-.151.14.14 0 0 1 .145-.136c.541.03.96.202 1.25.512zm-1.799-1.862a.138.138 0 0 1 .147-.133c1.104.084 1.977.481 2.596 1.181.621.702.926 1.588.903 2.631a.142.142 0 0 1-.139.141h-.003a.142.142 0 0 1-.135-.147c.021-.967-.258-1.785-.83-2.431a3.037 3.037 0 0 0-1.03-.758 4.113 4.113 0 0 0-1.382-.332.14.14 0 0 1-.127-.152zm4.911 4.388h-.001a.142.142 0 0 1-.139-.143c-.006-.855-.133-1.628-.379-2.299a4.822 4.822 0 0 0-1.096-1.74 4.95 4.95 0 0 0-1.635-1.107 5.333 5.333 0 0 0-1.995-.38.14.14 0 0 1-.138-.144.141.141 0 0 1 .139-.142h.001c1.515.011 2.8.539 3.821 1.568a5.073 5.073 0 0 1 1.161 1.844c.257.702.391 1.509.398 2.398a.142.142 0 0 1-.137.145z"/>
</svg>
