<svg xmlns="http://www.w3.org/2000/svg" width="34.658" height="19.994">
    <path class="fill_soc" fill-rule="evenodd" d="M24.992 14.905c-.137.018-.277.039-.417.04-1.367.002-2.734-.001-4.099.004a.761.761 0 0 1-.492-.182c-.286-.23-.58-.457-.843-.714-.684-.671-1.35-1.361-2.029-2.037-.211-.212-.438-.406-.66-.607-.115-.107-.259-.13-.409-.128-.2.005-.365.095-.443.278a1.811 1.811 0 0 0-.151.522c-.034.321-.036.645-.043.966-.006.359-.017.72-.118 1.07a2.064 2.064 0 0 1-.193.451.732.732 0 0 1-.646.376c-1.194.027-2.388.045-3.579-.033a1.68 1.68 0 0 1-.62-.181 10.111 10.111 0 0 1-2.938-2.153c-1.034-1.088-1.97-2.255-2.909-3.422-1.262-1.572-2.353-3.256-3.334-5.01C.71 3.505.365 2.856.107 2.167a1.615 1.615 0 0 1-.032-1.023c.028-.102.077-.201.134-.29A.421.421 0 0 1 .575.648L.746.645c1.24 0 2.478.005 3.717-.004a.787.787 0 0 1 .597.244c.305.302.542.654.757 1.02.231.399.464.801.669 1.215.451.91 1.004 1.76 1.588 2.587.286.403.595.791.891 1.186.138.183.329.253.548.259.214.007.301-.079.31-.291.002-.05.002-.1.002-.151 0-1.385 0-2.767-.002-4.151 0-.108 0-.216-.011-.323-.025-.247-.157-.391-.404-.439-.112-.021-.227-.031-.34-.046-.349-.045-.493-.191-.529-.538-.055-.523.198-.931.694-1.114.213-.079.434-.096.66-.095 1.105.002 2.208 0 3.313.001.224 0 .449-.012.67.008.234.022.469.052.696.118.483.138.762.463.818.964.013.12.016.24.016.36.002.84.002 1.68.002 2.52 0 .89 0 1.781.002 2.672 0 .087.008.178.032.262.078.269.376.359.626.189.736-.502 1.219-1.201 1.59-1.978.344-.719.64-1.459.963-2.187a99.3 99.3 0 0 1 .792-1.724c.067-.142.164-.271.253-.4a.385.385 0 0 1 .342-.168c1.605.005 3.206.004 4.809.002.392 0 .703.158.949.453a.742.742 0 0 1 .143.364c.096.625-.121 1.169-.422 1.694a9.342 9.342 0 0 1-.998 1.387c-.766.898-1.518 1.807-2.175 2.789-.17.252-.314.52-.47.781-.114.19-.098.373.045.543.289.345.57.7.874 1.028.724.786 1.466 1.551 2.193 2.332.233.251.444.521.66.787.071.088.125.19.194.28.546.694-.132 1.736-.818 1.824z"/>
</svg>
