<svg xmlns="http://www.w3.org/2000/svg" width="32.013" height="29.329">
    <path fill="#BBC0BE" fill-rule="evenodd" d="M19.319 22a.932.932 0 0 1-.533-.168l-6.034-4.195-3.237 2.387a.932.932 0 0 1-.876.126.965.965 0 0 1-.597-.668L6.417 13.17.61 10.895A.972.972 0 0 1 0 9.992a.973.973 0 0 1 .598-.912L22.677.076a.95.95 0 0 1 .428-.075.936.936 0 0 1 .658.331.981.981 0 0 1 .216.836l-3.727 20.041a.964.964 0 0 1-.569.716.927.927 0 0 1-.364.075zm-6.037-6.348l5.375 3.737 2.899-15.594-10.473 10.329 2.173 1.511.026.017zm-4.475-.831l.72 2.795 1.551-1.143-2.031-1.412a.96.96 0 0 1-.24-.24zM3.563 9.967l3.987 1.562a.968.968 0 0 1 .58.661l.505 1.964a.986.986 0 0 1 .286-.6l9.98-9.842L3.563 9.967z"/>
</svg>
