<svg xmlns="http://www.w3.org/2000/svg" width="26.683" height="26.683">
    <path fill="#00D081" fill-rule="evenodd" d="M9.961 20C4.415 20 0 15.425 0 9.961A9.955 9.955 0 0 1 9.961 0C15.42 0 20 4.409 20 9.961 20 15.472 15.454 20 9.961 20zm0-18.836c-4.847 0-8.797 3.95-8.797 8.797 0 4.889 3.95 8.875 8.797 8.875 4.889 0 8.875-3.986 8.875-8.875 0-4.847-3.986-8.797-8.875-8.797zm4.179 11.727c-.796 0-1.501-.4-1.924-1.009a3.035 3.035 0 0 1-2.255 1.009 2.933 2.933 0 0 1-2.93-2.93 2.933 2.933 0 0 1 2.93-2.93c.667 0 1.307.22 1.835.623v-.037a.586.586 0 0 1 1.172 0v2.93c0 .646.526 1.172 1.172 1.172.646 0 1.172-.526 1.172-1.172v-.586c0-2.908-2.4-5.281-5.351-5.281-2.908 0-5.274 2.373-5.274 5.281 0 2.951 2.366 5.359 5.274 5.359 1.187 0 2.384-.404 3.284-1.094a.585.585 0 0 1 .713.93c-1.1.844-2.557 1.328-3.997 1.328-3.56 0-6.446-2.956-6.446-6.523a6.454 6.454 0 0 1 6.446-6.446c3.563 0 6.523 2.881 6.523 6.446v.586a2.347 2.347 0 0 1-2.344 2.344zM9.961 8.195a1.767 1.767 0 0 0 0 3.531c.995 0 1.835-.812 1.835-1.765 0-.953-.84-1.766-1.835-1.766z"/>
</svg>
