<svg xmlns="http://www.w3.org/2000/svg" width="18.671" height="26.683">
    <path fill="#00D081" fill-rule="evenodd" d="M13.013 10.634l-5.416 9.081a.583.583 0 0 1-.495.285h-.005a.584.584 0 0 1-.496-.277l-5.557-8.995A7.043 7.043 0 0 1 0 7.031C0 3.154 3.14 0 7 0s7 3.154 7 7.031a7.059 7.059 0 0 1-.987 3.603zM7 1.164c-3.217 0-5.842 2.636-5.842 5.867 0 1.092.309 2.157.878 3.08l5.052 8.177 4.923-8.256a5.873 5.873 0 0 0 .826-3.001c0-3.231-2.621-5.867-5.837-5.867zm0 9.383c-1.956 0-3.5-1.59-3.5-3.516A3.512 3.512 0 0 1 7 3.516c1.93 0 3.5 1.577 3.5 3.515 0 1.905-1.521 3.516-3.5 3.516zm0-5.868a2.355 2.355 0 0 0-2.341 2.352A2.348 2.348 0 0 0 7 9.383c1.314 0 2.337-1.075 2.337-2.352A2.352 2.352 0 0 0 7 4.679z"/>
</svg>
