<svg xmlns="http://www.w3.org/2000/svg" width="26.683" height="28.006">
    <path fill="#00D081" fill-rule="evenodd" d="M19.485 14.751l-2.486-2.486a1.759 1.759 0 0 0-2.486 0l-1.131 1.13a1.333 1.333 0 0 1-1.883 0L6.6 8.492a1.331 1.331 0 0 1 0-1.883l1.13-1.13a1.756 1.756 0 0 0 0-2.487L5.244.514A1.76 1.76 0 0 0 2.76.512l-.906.899a6.347 6.347 0 0 0-.001 8.965l7.762 7.765a6.336 6.336 0 0 0 8.966 0l.904-.904a1.759 1.759 0 0 0 0-2.486zM3.586 1.343a.588.588 0 0 1 .83.001l2.486 2.477c.229.229.229.6 0 .829l-.415.414-3.312-3.312.411-.409zm6.858 15.97L2.683 9.547a5.152 5.152 0 0 1-.324-6.953l3.303 3.303a2.502 2.502 0 0 0 .11 3.424l4.898 4.902v.001c.94.939 2.439.978 3.424.109l3.303 3.303a5.143 5.143 0 0 1-6.953-.323zm8.213-.905l-.415.415-3.315-3.315.414-.415a.588.588 0 0 1 .829 0l2.487 2.487c.228.228.228.6 0 .828z"/>
</svg>
