<svg xmlns="http://www.w3.org/2000/svg" width="78.652" height="58.658">
    <path fill="#FFF" fill-rule="evenodd" d="M55.294 36.12h-4.301C50.416 40.559 46.591 44 41.97 44c-4.621 0-8.446-3.441-9.023-7.88h-12.2C20.17 40.559 16.345 44 11.724 44c-4.671 0-8.529-3.516-9.041-8.023C1.136 35.534 0 34.116 0 32.438V3.683C0 1.652 1.662 0 3.706 0h36.66c2.043 0 3.706 1.652 3.706 3.683v8.663h4.846c.332 0 .651.131.886.365l8.829 8.773c.235.233.367.55.367.88v10.074c0 2.03-1.663 3.682-3.706 3.682zm-43.57 5.389c3.636 0 6.594-2.94 6.594-6.553s-2.958-6.553-6.594-6.553-6.594 2.94-6.594 6.553 2.958 6.553 6.594 6.553zM41.565 3.683c0-.658-.538-1.192-1.199-1.192H3.706c-.662 0-1.199.534-1.199 1.192v28.755c0 .295.109.565.288.773.821-4.155 4.512-7.299 8.929-7.299 4.565 0 8.354 3.357 9.002 7.717h12.242c.628-4.23 4.215-7.515 8.597-7.707V3.683zm.405 24.72c-3.636 0-6.594 2.94-6.594 6.553s2.958 6.553 6.594 6.553 6.594-2.94 6.594-6.553-2.958-6.553-6.594-6.553zm6.429-13.566h-4.327v6.282h10.649l-6.322-6.282zm8.094 8.773H44.072v2.548c3.585.846 6.355 3.802 6.9 7.471h4.322c.661 0 1.199-.534 1.199-1.191V23.61zM41.97 38.882c-2.178 0-3.951-1.761-3.951-3.926s1.773-3.926 3.951-3.926c1.055 0 2.047.408 2.794 1.15a3.887 3.887 0 0 1 1.157 2.776c0 2.165-1.773 3.926-3.951 3.926zm1.021-4.941a1.439 1.439 0 0 0-1.021-.42 1.44 1.44 0 0 0-1.444 1.435 1.44 1.44 0 0 0 1.444 1.435c.796 0 1.444-.644 1.444-1.435 0-.383-.15-.744-.423-1.015zm-20.955-7.554c-5.825 0-10.564-4.709-10.564-10.498 0-5.788 4.739-10.498 10.564-10.498s10.563 4.71 10.563 10.498c0 5.789-4.738 10.498-10.563 10.498zm0-18.504c-4.443 0-8.057 3.591-8.057 8.006s3.614 8.007 8.057 8.007c4.442 0 8.057-3.592 8.057-8.007 0-4.415-3.615-8.006-8.057-8.006zm-1.481 12.253c-.321 0-.642-.122-.886-.365l-3.079-3.059a1.24 1.24 0 0 1 0-1.761 1.26 1.26 0 0 1 1.773-.001l2.192 2.179 5.154-5.122a1.26 1.26 0 0 1 1.772 0 1.24 1.24 0 0 1 0 1.762l-6.04 6.002a1.254 1.254 0 0 1-.886.365zM11.724 31.03c2.179 0 3.951 1.761 3.951 3.926s-1.772 3.926-3.951 3.926c-2.178 0-3.951-1.761-3.951-3.926s1.773-3.926 3.951-3.926zm0 5.361c.797 0 1.445-.644 1.445-1.435s-.648-1.435-1.445-1.435c-.796 0-1.444.644-1.444 1.435s.648 1.435 1.444 1.435z"/>
</svg>
