<svg xmlns="http://www.w3.org/2000/svg" width="3.881cm" height="3.881cm">
    <path fill="#00D17D" fill-rule="evenodd" d="M107.851 36.953H97.108v61.843c0 5.848-4.454 11.203-10.742 11.203H36.523c-8.293 0-15.039-6.747-15.039-15.039 0-1.187.962-2.148 2.148-2.148h6.446V26.211c0-5.924 4.819-10.742 10.741-10.742h60.586c4.738 0 8.594 3.855 8.594 8.594v10.741a2.149 2.149 0 0 1-2.148 2.149zM25.997 97.109c.998 4.896 5.338 8.593 10.526 8.593h41.254a10.69 10.69 0 0 1-2.152-6.445v-2.148H25.997zm14.822-77.366c-3.553 0-6.445 2.914-6.445 6.468v66.601h43.399c1.186 0 2.148.961 2.148 2.148v4.297a6.452 6.452 0 0 0 6.445 6.445c3.866 0 6.446-3.347 6.446-6.906V24.063c0-1.549.412-3.043 1.148-4.32H40.819zm64.884 4.32a4.302 4.302 0 0 0-4.298-4.297 4.295 4.295 0 0 0-4.297 4.297v8.593h8.595v-8.593zM82.069 84.218H53.71a2.148 2.148 0 0 1 0-4.297h28.359a2.148 2.148 0 1 1 0 4.297zm0-12.89H53.71a2.149 2.149 0 0 1 0-4.297h28.359a2.148 2.148 0 1 1 0 4.297zM68.786 54.645a352.617 352.617 0 0 0-3.836 3.267 2.14 2.14 0 0 1-1.406.525 2.141 2.141 0 0 1-1.407-.525c-1.345-1.165-2.612-2.234-3.837-3.268-6.837-5.771-11.779-9.941-11.779-16.063 0-5.732 4.21-10.222 9.583-10.222 3.617 0 5.975 1.938 7.44 3.909 1.464-1.971 3.821-3.909 7.435-3.909 5.376 0 9.586 4.49 9.586 10.222 0 6.122-4.94 10.293-11.779 16.064zm2.193-21.989c-3.92 0-5.311 4.68-5.368 4.88a2.156 2.156 0 0 1-2.066 1.56h-.011a2.147 2.147 0 0 1-2.059-1.56c-.057-.2-1.448-4.88-5.371-4.88-3.013 0-5.287 2.547-5.287 5.925 0 4.126 3.86 7.383 10.255 12.779.801.678 1.621 1.369 2.472 2.095.848-.726 1.669-1.417 2.47-2.094 6.395-5.397 10.254-8.654 10.254-12.78 0-3.378-2.274-5.925-5.289-5.925zM47.265 69.179a2.15 2.15 0 0 1-4.298 0 2.15 2.15 0 0 1 4.298 0zm-2.149 10.742a2.15 2.15 0 1 1 0 4.299 2.15 2.15 0 0 1 0-4.299zM23.632 49.843a2.148 2.148 0 0 1-2.148-2.148V27.929a2.15 2.15 0 0 0-2.149-2.148h-2.148v60.586a28.105 28.105 0 0 1-5.586 16.757l-.86 1.145v3.582a2.148 2.148 0 1 1-4.296 0v-3.582l-.859-1.145A28.096 28.096 0 0 1 0 86.367v-69.18c0-2.101.774-4.12 2.148-5.679V6.445A6.452 6.452 0 0 1 8.593 0a6.453 6.453 0 0 1 6.446 6.445v5.063a8.525 8.525 0 0 1 2.148 5.679v4.297h2.148a6.452 6.452 0 0 1 6.445 6.445v19.766a2.148 2.148 0 0 1-2.148 2.148zM8.593 99.953a23.8 23.8 0 0 0 4.197-11.438H4.396a23.821 23.821 0 0 0 4.197 11.438zm2.148-93.508a2.15 2.15 0 0 0-2.148-2.148 2.15 2.15 0 0 0-2.148 2.148v2.423a8.565 8.565 0 0 1 4.296 0V6.445zm2.149 10.742c0-2.403-1.962-4.297-4.297-4.297a4.306 4.306 0 0 0-4.297 4.297v4.297h8.594v-4.297zm0 8.594H4.296v58.437h8.594V25.781z"/>
</svg>
