<svg xmlns="http://www.w3.org/2000/svg" width="3.986cm" height="2.963cm">
    <path fill="#00D17D" fill-rule="evenodd" d="M108.575 70.359c.003.126.01.251.01.378 0 7.313-5.941 13.263-13.242 13.263-7.302 0-13.242-5.95-13.242-13.263H41.05C41.05 78.05 35.11 84 27.808 84c-7.302 0-13.241-5.95-13.241-13.263H6.621c-3.652 0-6.622-2.975-6.622-6.632V6.631C-.001 2.974 2.969 0 6.621 0h64.445c3.651 0 6.621 2.974 6.621 6.631v6.632h17.656c3.651 0 6.621 2.974 6.621 6.632a6.584 6.584 0 0 1-2.047 4.79l3.806 15.246c5.251.846 9.276 5.416 9.276 10.911v13.263a6.64 6.64 0 0 1-4.424 6.254zm-80.767 9.22c4.868 0 8.828-3.967 8.828-8.842 0-4.932-4.02-8.842-8.828-8.842-4.797 0-8.828 3.899-8.828 8.842 0 4.875 3.96 8.842 8.828 8.842zM73.273 6.631a2.21 2.21 0 0 0-2.207-2.21H6.621a2.21 2.21 0 0 0-2.208 2.21v57.474c0 1.219.99 2.211 2.208 2.211h8.702c1.839-5.215 6.831-8.843 12.485-8.843 5.652 0 10.64 3.626 12.485 8.843h32.98V6.631zm22.07 72.948c4.866 0 8.828-3.967 8.828-8.842 0-4.932-4.022-8.842-8.828-8.842-4.797 0-8.828 3.899-8.828 8.842 0 4.875 3.96 8.842 8.828 8.842zm0-61.895H77.687v4.421h17.656a2.21 2.21 0 0 0 0-4.421zm.483 8.842H77.687v10.136l5.061-5.067a2.202 2.202 0 0 1 3.12 0 2.211 2.211 0 0 1 0 3.125l-5.061 5.069h18.329l-3.31-13.263zm12.759 26.526h-6.621a2.208 2.208 0 0 1-2.207-2.21c0-1.221.987-2.211 2.207-2.211h6.241c-.911-2.573-3.365-4.421-6.241-4.421H77.687v22.106h5.17c1.84-5.215 6.831-8.843 12.486-8.843 5.498 0 10.369 3.431 12.327 8.42a2.208 2.208 0 0 0 .915-1.788V53.052zm-15.449 0a2.209 2.209 0 0 1-2.207-2.21c0-1.221.988-2.211 2.207-2.211a2.21 2.21 0 0 1 2.207 2.211 2.21 2.21 0 0 1-2.207 2.21zm2.207 13.264a4.417 4.417 0 0 1 4.414 4.421 4.417 4.417 0 0 1-4.414 4.421 4.416 4.416 0 0 1-4.414-4.421 4.415 4.415 0 0 1 4.414-4.421zM18.98 33.158c0-10.97 8.911-19.895 19.863-19.895 10.953 0 19.863 8.925 19.863 19.895 0 10.969-8.91 19.894-19.863 19.894-10.952 0-19.863-8.925-19.863-19.894zm35.312 0c0-8.533-6.93-15.474-15.449-15.474s-15.449 6.941-15.449 15.474c0 8.532 6.93 15.473 15.449 15.473s15.449-6.941 15.449-15.473zm-17.656 0v-8.842a2.21 2.21 0 0 1 2.207-2.211c1.219 0 2.207.99 2.207 2.211v6.631h6.621c1.22 0 2.207.99 2.207 2.211 0 1.22-.987 2.21-2.207 2.21h-8.828a2.21 2.21 0 0 1-2.207-2.21zm-8.828 33.158a4.416 4.416 0 0 1 4.414 4.421 4.417 4.417 0 0 1-4.414 4.421 4.417 4.417 0 0 1-4.414-4.421 4.416 4.416 0 0 1 4.414-4.421z"/>
</svg>
