<svg xmlns="http://www.w3.org/2000/svg" width="4.233cm" height="3.951cm">
    <path fill="#00D17D" fill-rule="evenodd" d="M112.968 112H22.499c-3.877 0-7.03-3.14-7.03-7V70H7.031c-3.878 0-7.032-3.14-7.032-7V7c0-3.86 3.154-7 7.032-7h90.468c3.877 0 7.031 3.14 7.031 7v35h8.438c3.877 0 7.031 3.14 7.031 7v56c0 3.86-3.154 7-7.031 7zM99.843 7a2.342 2.342 0 0 0-2.344-2.334H7.031A2.341 2.341 0 0 0 4.687 7v7h95.156V7zm0 11.666H4.687V28h95.156v-9.334zm0 14.001H4.687V63a2.341 2.341 0 0 0 2.344 2.333h8.438V49c0-3.86 3.153-7 7.03-7h77.344v-9.333zM115.311 49a2.34 2.34 0 0 0-2.343-2.333H22.499A2.34 2.34 0 0 0 20.156 49v56a2.34 2.34 0 0 0 2.343 2.333h90.469a2.34 2.34 0 0 0 2.343-2.333V49zM92.812 79.333a11.76 11.76 0 0 1-7.033-2.338 11.747 11.747 0 0 1-7.03 2.338c-6.463 0-11.718-5.234-11.718-11.667S72.286 56 78.749 56c2.555 0 5.018.835 7.03 2.337A11.766 11.766 0 0 1 92.812 56c6.46 0 11.718 5.233 11.718 11.666 0 6.433-5.258 11.667-11.718 11.667zm-8.791-16.294l-.002-.002a7.039 7.039 0 0 0-5.27-2.37c-3.877 0-7.031 3.139-7.031 6.999s3.154 7.001 7.031 7.001a7.04 7.04 0 0 0 5.27-2.372 6.96 6.96 0 0 0 .002-9.256zm8.791-2.372c-1.405 0-2.762.42-3.909 1.182a11.622 11.622 0 0 1 1.565 5.817c0 2.057-.549 4.06-1.565 5.817a7.058 7.058 0 0 0 3.909 1.184c3.876 0 7.031-3.141 7.031-7.001 0-3.86-3.155-6.999-7.031-6.999zM59.999 98h-9.375a2.338 2.338 0 0 1-2.343-2.333 2.339 2.339 0 0 1 2.343-2.334h9.375a2.34 2.34 0 0 1 2.344 2.334A2.34 2.34 0 0 1 59.999 98zm0-14a2.34 2.34 0 0 1-2.344-2.334 2.34 2.34 0 0 1 2.344-2.333 2.34 2.34 0 0 1 2.344 2.333A2.34 2.34 0 0 1 59.999 84zm-9.375 0H31.875a2.339 2.339 0 0 1-2.344-2.334 2.339 2.339 0 0 1 2.344-2.333h18.749a2.34 2.34 0 0 1 2.344 2.333A2.34 2.34 0 0 1 50.624 84zm-18.749 9.333h9.374a2.34 2.34 0 0 1 2.344 2.334A2.34 2.34 0 0 1 41.249 98h-9.374a2.339 2.339 0 0 1-2.344-2.333 2.339 2.339 0 0 1 2.344-2.334zm37.499 0h9.375a2.34 2.34 0 0 1 2.344 2.334A2.34 2.34 0 0 1 78.749 98h-9.375a2.338 2.338 0 0 1-2.343-2.333 2.339 2.339 0 0 1 2.343-2.334zm18.75 0h9.375a2.34 2.34 0 0 1 2.344 2.334A2.34 2.34 0 0 1 97.499 98h-9.375a2.338 2.338 0 0 1-2.343-2.333 2.339 2.339 0 0 1 2.343-2.334z"/>
</svg>
