<svg
xmlns="http://www.w3.org/2000/svg"
xmlns:xlink="http://www.w3.org/1999/xlink"
width="33px" height="33px" viewBox="0 0 33 33">
<path fill-rule="evenodd"  fill="rgb(59, 57, 65)"
      d="M18.621,16.500 L32.410,30.289 C32.996,30.874 32.996,31.824 32.410,32.410 C31.824,32.996 30.874,32.996 30.289,32.410 L16.500,18.621 L2.711,32.410 C2.126,32.996 1.176,32.996 0.590,32.410 C0.004,31.824 0.004,30.874 0.590,30.289 L14.379,16.500 L0.590,2.711 C0.004,2.126 0.004,1.176 0.590,0.590 C1.176,0.004 2.126,0.004 2.711,0.590 L16.500,14.379 L30.289,0.590 C30.874,0.004 31.824,0.004 32.410,0.590 C32.996,1.176 32.996,2.126 32.410,2.711 L18.621,16.500 Z"/>
</svg>